<?xml version="1.0" standalone="no"?><!DOCTYPE svg PUBLIC "-//W3C//DTD SVG 1.1//EN" "http://www.w3.org/Graphics/SVG/1.1/DTD/svg11.dtd"><svg t="1700605498677" class="icon" viewBox="0 0 1024 1024" version="1.1" xmlns="http://www.w3.org/2000/svg" p-id="7727" xmlns:xlink="http://www.w3.org/1999/xlink" width="200" height="200"><path d="M0 0h1024v1024H0z" fill="#202425" opacity=".01" p-id="7728"></path><path d="M102.4 68.266667a34.133333 34.133333 0 0 0-28.398933 53.077333l127.6928 191.556267A407.995733 407.995733 0 0 0 102.4 580.266667c0 226.2016 183.3984 409.6 409.6 409.6s409.6-183.3984 409.6-409.6c0-102.1952-37.410133-195.618133-99.328-267.3664l127.726933-191.556267A34.133333 34.133333 0 0 0 921.6 68.266667h-238.933333a34.133333 34.133333 0 0 0-28.398934 15.189333l-63.214933 94.8224a411.648 411.648 0 0 0-158.1056 0l-63.214933-94.8224A34.133333 34.133333 0 0 0 341.333333 68.266667H102.4z m261.7344 129.911466a409.258667 409.258667 0 0 0-112.776533 66.116267L166.1952 136.533333h156.8768l41.096533 61.6448z m295.697067 0L700.928 136.533333h156.8768l-85.162667 127.761067a409.258667 409.258667 0 0 0-112.810666-66.116267zM512 238.933333c188.5184 0 341.333333 152.814933 341.333333 341.333334s-152.814933 341.333333-341.333333 341.333333S170.666667 768.785067 170.666667 580.266667 323.4816 238.933333 512 238.933333z m0 204.8a136.533333 136.533333 0 1 0 0 273.066667 136.533333 136.533333 0 0 0 0-273.066667z m-204.8 136.533334a204.8 204.8 0 1 1 409.6 0 204.8 204.8 0 0 1-409.6 0z" fill="#202425" p-id="7729"></path></svg>