<?xml version="1.0" standalone="no"?><!DOCTYPE svg PUBLIC "-//W3C//DTD SVG 1.1//EN" "http://www.w3.org/Graphics/SVG/1.1/DTD/svg11.dtd"><svg t="1701686361774" class="icon" viewBox="0 0 1024 1024" version="1.1" xmlns="http://www.w3.org/2000/svg" p-id="9268" xmlns:xlink="http://www.w3.org/1999/xlink" width="200" height="200"><path d="M602.40782222 190.03164445m-90.19164444 0a90.19164445 90.19164445 0 1 0 180.38328889 0 90.19164445 90.19164445 0 1 0-180.38328889 0Z" fill="#050500" p-id="9269"></path><path d="M356.20408889 555.49724445l76.26524444 37.69457777c16.20195555 8.00995555 35.84 1.50186667 44.05475556-14.59768889l105.99537778-207.86062222c18.86435555-37.00053333 3.85706667-82.29546667-33.39377778-100.70471111-36.69333333-18.13617778-81.93137778-3.14026667-100.52266667 33.31413333l-106.65528889 209.15768889c-8.05546667 15.79235555-1.6384 35.13457778 14.25635556 42.99662223z" fill="#050500" p-id="9270"></path><path d="M690.54008889 389.62062222c-11.61671111 0-23.26755555-0.512-34.90702222-1.57013333-54.54506667-4.9152-106.5984-21.15128889-154.68088889-48.21902222-16.85048889-9.46631111-22.82382222-30.78826667-13.34613333-47.63875556 9.47768889-16.85048889 30.78826667-22.89208889 47.65013333-13.32337778 39.41262222 22.14115555 82.03377778 35.44177778 126.68017777 39.46951112 39.12817778 3.4816 78.19946667-0.2048 116.23537778-11.17297778 18.59128889-5.30204445 37.94488889 5.33617778 43.32657778 23.91608888 5.34755555 18.55715555-5.34755555 37.96764445-23.91608889 43.32657778-35.08906667 10.11484445-70.9632 15.21208889-107.04213333 15.21208889z" fill="#050500" p-id="9271"></path><path d="M389.8368 358.47964445c-12.6976 0-25.88444445-0.8192-39.53777778-2.59413334-46.66026667-6.05297778-92.28515555-23.23342222-131.8912-49.72088889-16.06542222-10.72924445-20.38897778-32.4608-9.64835555-48.52622222 10.72924445-16.06542222 32.4608-20.40035555 48.5376-9.63697778 30.70862222 20.50275555 65.96835555 33.82613333 102.02453333 38.51377778 58.81173333 7.55484445 107.16728889-8.40817778 137.30702222-23.16515555 17.32835555-8.57884445 38.32035555-1.36533333 46.81955556 15.99715555 8.52195555 17.36248889 1.36533333 38.30897778-15.99715556 46.81955555-31.81226667 15.61031111-79.45102222 32.31288889-137.61422222 32.3128889z" fill="#050500" p-id="9272"></path><path d="M375.15946667 561.64124445a34.79324445 34.79324445 0 0 1-20.60515556-6.73564445l-77.77848889-56.79786667a34.99804445 34.99804445 0 0 1-14.24497777-25.7024l-17.64693334-239.44533333c-1.4336-19.27395555 13.05031111-36.05617778 32.32426667-37.45564445 19.28533333-1.67253333 36.03342222 13.05031111 37.45564444 32.32426667l16.47502223 223.28888889 64.70542222 47.26328889c15.59893333 11.41191111 19.01226667 33.28 7.62311111 48.90168889a35.05379555 35.05379555 0 0 1-28.30791111 14.35875556zM449.8432 924.42168889c-19.31946667 0-34.99804445-15.65582222-34.99804445-34.99804444V505.45777778c0-19.34222222 15.6672-34.99804445 34.99804445-34.99804445 19.31946667 0 34.99804445 15.65582222 34.99804445 34.99804445v383.96586667c-0.01137778 19.34222222-15.67857778 34.99804445-34.99804445 34.99804444z" fill="#050500" p-id="9273"></path></svg>